<svg data-v-423bf9ae="" xmlns="http://www.w3.org/2000/svg" viewBox="0 0 560 90" class="iconLeft"><!----><!----><!----><g data-v-423bf9ae="" id="5d325a77-2a93-4092-99b5-12c2076af003" fill="#ffffff" transform="matrix(5.830903811703725,0,0,5.830903811703725,72.10521752700296,-12.1720113496512)"><path d="M8.12 9.10L8.12 6.02L6.50 5.08L1.19 5.08L1.19 14.88L6.50 14.88L8.12 13.94L8.12 10.53L6.90 9.83L6.90 9.80ZM3.15 10.65L6.16 10.65L6.16 13.20L3.15 13.20ZM3.15 6.76L6.16 6.76L6.16 8.97L3.15 8.97ZM12.00 12.12L13.97 12.12L13.97 13.34L12.00 13.34ZM11.70 14.95L12.98 14.95L13.97 14.38L14.97 14.95L15.89 14.95L15.89 8.82L14.27 7.88L10.78 7.88L10.78 9.52L13.97 9.52L13.97 10.65L11.70 10.65L10.08 11.59L10.08 14.01ZM22.32 9.52L22.32 7.88L20.90 7.88L19.91 8.46L19.57 7.88L17.99 7.88L17.99 14.88L19.91 14.88L19.91 9.52ZM26.63 7.81L25.63 8.39L25.63 4.66L23.72 4.66L23.72 14.95L24.64 14.95L25.63 14.38L26.63 14.95L28.46 14.95L30.09 14.01L30.09 8.75L28.46 7.81ZM25.63 9.45L28.17 9.45L28.17 13.31L25.63 13.31ZM38.00 13.24L34.10 13.24L34.10 12.10L38.00 12.10L38.00 8.75L36.37 7.81L33.81 7.81L32.19 8.75L32.19 13.94L33.81 14.88L38.00 14.88ZM34.10 9.45L36.08 9.45L36.08 10.65L34.10 10.65ZM41.72 14.88L43.41 14.88L43.41 13.24L42.01 13.24L42.01 4.66L40.10 4.66L40.10 13.94ZM46.30 14.88L47.99 14.88L47.99 13.24L46.59 13.24L46.59 4.66L44.67 4.66L44.67 13.94ZM54.99 10.68L58.20 10.68L58.20 9.00L54.99 9.00L54.99 6.76L59.04 6.76L59.04 5.08L53.03 5.08L53.03 14.88L54.99 14.88ZM62.08 12.12L64.05 12.12L64.05 13.34L62.08 13.34ZM61.78 14.95L63.06 14.95L64.05 14.38L65.04 14.95L65.97 14.95L65.97 8.82L64.34 7.88L60.86 7.88L60.86 9.52L64.05 9.52L64.05 10.65L61.78 10.65L60.16 11.59L60.16 14.01ZM72.39 9.52L72.39 7.88L70.98 7.88L69.99 8.46L69.65 7.88L68.07 7.88L68.07 14.88L69.99 14.88L69.99 9.52ZM83.64 8.75L82.01 7.81L80.67 7.81L79.35 8.57L78.05 7.81L76.71 7.81L75.71 8.39L75.38 7.81L73.79 7.81L73.79 14.88L75.71 14.88L75.71 9.45L77.76 9.45L77.76 14.88L79.67 14.88L79.67 9.45L81.72 9.45L81.72 14.88L83.64 14.88Z"></path></g><!----><g data-v-423bf9ae="" id="cbde9931-ac8b-47ba-91eb-0678dcf77463" transform="matrix(1,0,0,1,-19.522001266479492,-5)" stroke="none" fill="#D1793F"><path d="M52.072 74.849l-6.513-3.633 3.777 4.211-2.563 16.86L38.753 95h11.886l-1.218-2.713z"></path><path d="M65.918 33.45H44.691L33.1 5.194l-2.223 1.431L28.371 5l-1.117 2.579H24.5v4.076l-4.022 2.835h4.07v5.306s-.207 2.518 2.294 2.518c1.807 0 2.326-1.236 2.326-1.236v32.19L43.993 69.5h11.108l6.025 6.599-2.461 16.188L50.646 95h11.886l-1.218-2.713L64.775 69.5l14.747-16.232V22.279L65.918 33.45z"></path></g><!----></svg>